# xmcd
#
# Track frame offsets:
# 150
# 17154
# 32584
# 47199
# 64376
# 79391
#
# Disc length: 1245 seconds
#
#
# Revision: 0
# Processed by: cddbd v1.5.1PL0 Copyright (c) Steve Scherf et al.
# Submitted via: FreeRIP 2.90 
#
DISCID=4d04db06
DTITLE=Various Artist - The Best RAP and HIP-HOP Album 2005 cd2
DYEAR=2005
DGENRE=Hip-Hop
TTITLE0=Blackmarket Boy
TTITLE1=Pies
TTITLE2=Sunshowers
TTITLE3=Single
TTITLE4=Travelin' Man
TTITLE5=Urban Legend
EXTD=CD2
EXTT0=Fallacy
EXTT1=Wiley
EXTT2=M.I.A.
EXTT3=Automato
EXTT4=Joni Rewind
EXTT5=Kliclack
PLAYORDER=
